<svg width="38" height="38" viewBox="0 0 38 38" fill="none" xmlns="http://www.w3.org/2000/svg">
<path d="M38 19C38 32.5003 32.5003 38 19 38C5.49971 38 0 32.5003 0 19C0 5.49971 5.49971 0 19 0C32.5003 0 38 5.49971 38 19Z" fill="#FF6600"/>
<path fill-rule="evenodd" clip-rule="evenodd" d="M16.7143 11C16.0831 11 15.5714 11.5117 15.5714 12.1429V22.4286C15.5714 23.0597 16.0831 23.5714 16.7143 23.5714C17.3455 23.5714 17.8572 23.0597 17.8572 22.4286V12.1429C17.8572 11.5117 17.3455 11 16.7143 11ZM12.1429 14.8095C11.5117 14.8095 11 15.3212 11 15.9524V26.2381C11 26.8693 11.5117 27.3809 12.1429 27.3809C12.774 27.3809 13.2857 26.8693 13.2857 26.2381V15.9524C13.2857 15.3212 12.774 14.8095 12.1429 14.8095ZM20.1431 15.9524C20.1431 15.3212 20.6547 14.8095 21.2859 14.8095C21.9171 14.8095 22.4288 15.3212 22.4288 15.9524V26.2381C22.4288 26.8693 21.9171 27.3809 21.2859 27.3809C20.6547 27.3809 20.1431 26.8693 20.1431 26.2381V15.9524ZM25.8572 13.0952C25.226 13.0952 24.7143 13.6069 24.7143 14.2381V24.5238C24.7143 25.155 25.226 25.6666 25.8572 25.6666C26.4884 25.6666 27 25.155 27 24.5238V14.2381C27 13.6069 26.4884 13.0952 25.8572 13.0952Z" fill="#121212"/>
</svg>
